#!OML:ASF H:\Dans Jumps\Project 1\Capture day 1\Session 1\subject.ASF
:FULLY-SPECIFIED
:DEGREES
477
root 0.133517 17.6797 10.7418 7.07319 -1.61221 -1.60528
lowerback -6.41106 0.337623 0.59621
upperback -0.616725 0.35889 1.53286
thorax 2.95244 0.177486 1.27691
lowerneck -15.1717 0.0396022 -1.83731
upperneck 16.4318 0.359305 0.651006
head 7.55485 0.118319 0.555007
rclavicle 3.67752e-015 1.15295e-014
rhumerus -27.1282 -19.4977 -79.9138
rradius 20.426
rwrist 44.1902
rhand -15.5022 -25.714
rfingers 7.12502
rthumb 10.6804 -55.4226
lclavicle 3.67752e-015 1.15295e-014
lhumerus -24.0193 8.57603 86.1977
lradius 13.7671
lwrist -4.60355
lhand -24.7843 -7.49648
lfingers 7.12502
lthumb 1.71988 22.4763
rfemur -9.59845 -2.37482 19.7656
rtibia 18.7684
rfoot -15.168 2.51683
rtoes 16.1687
lfemur -8.25588 8.55223 -17.7094
ltibia 16.3066
lfoot -11.5475 6.78353
ltoes -8.44223
478
root 0.134519 17.6802 10.7366 7.07782 -1.64606 -1.60162
lowerback -6.39774 0.335525 0.586443
upperback -0.627886 0.357272 1.52979
thorax 2.93346 0.176617 1.27889
lowerneck -15.2113 0.0667663 -1.8229
upperneck 16.3273 0.393219 0.653861
head 7.52695 0.136276 0.556953
rclavicle 3.21783e-015 1.94809e-014
rhumerus -27.1121 -19.4219 -79.9744
rradius 20.4665
rwrist 44.0715
rhand -15.499 -25.7053
rfingers 7.12502
rthumb 10.6834 -55.4137
lclavicle 3.21783e-015 1.94809e-014
lhumerus -23.9307 8.65833 86.2059
lradius 13.7618
lwrist -4.70782
lhand -24.71 -7.39737
lfingers 7.12502
lthumb 1.79164 22.5749
rfemur -9.63606 -2.34563 19.7587
rtibia 18.7847
rfoot -15.1563 2.50528
rtoes 16.1248
lfemur -8.25797 8.55833 -17.7194
ltibia 16.2749
lfoot -11.5267 6.79029
ltoes -8.42156
479
root 0.135458 17.6807 10.731 7.07945 -1.67832 -1.59616
lowerback -6.38196 0.333024 0.572969
upperback -0.634785 0.355313 1.52766
thorax 2.91747 0.175522 1.2839
lowerneck -15.2486 0.0872556 -1.83097
upperneck 16.222 0.420437 0.671209
head 7.4984 0.151028 0.566609
rclavicle 1.81391e-015 -2.22639e-014
rhumerus -27.0859 -19.3322 -80.0426
rradius 20.5131
rwrist 43.9405
rhand -15.5018 -25.6937
rfingers 7.12502
rthumb 10.6808 -55.4022
lclavicle 1.81391e-015 -2.22639e-014
lhumerus -23.841 8.68927 86.2381
lradius 13.766
lwrist -4.74952
lhand -24.6714 -7.33985
lfingers 7.12502
lthumb 1.82891 22.6321
rfemur -9.67291 -2.31384 19.7506
rtibia 18.8044
rfoot -15.1456 2.4879
rtoes 16.0727
lfemur -8.25854 8.55979 -17.7305
ltibia 16.2443
lfoot -11.5046 6.79908
ltoes -8.39875
480
root 0.13638 17.6811 10.7252 7.07704 -1.70945 -1.58942
lowerback -6.36032 0.33061 0.556881
upperback -0.63871 0.353656 1.52664
thorax 2.90124 0.17454 1.29153
lowerneck -15.2835 0.108623 -1.8426
upperneck 16.1184 0.449098 0.691507
head 7.46996 0.166528 0.577957
rclavicle -8.07563e-016 -2.38542e-015
rhumerus -27.0543 -19.2267 -80.1165
rradius 20.5675
rwrist 43.7968
rhand -15.5134 -25.6757
rfingers 7.12502
rthumb 10.6695 -55.3848
lclavicle -8.07563e-016 -2.38542e-015
lhumerus -23.7523 8.68531 86.2892
lradius 13.7762
lwrist -4.75268
lhand -24.6635 -7.32763
lfingers 7.12502
lthumb 1.83658 22.6442
rfemur -9.70779 -2.28289 19.7411
rtibia 18.8273
rfoot -15.1375 2.46939
rtoes 16.006
lfemur -8.25645 8.55819 -17.7425
ltibia 16.2144
lfoot -11.481 6.80927
ltoes -8.37571
481
root 0.137343 17.6814 10.7191 7.07158 -1.7408 -1.57835
lowerback -6.33594 0.329371 0.536703
upperback -0.638451 0.353848 1.52466
thorax 2.88775 0.174427 1.30063
lowerneck -15.3053 0.125706 -1.85414
upperneck 16.0067 0.472327 0.708059
head 7.43672 0.179122 0.587394
rclavicle -8.75895e-015 -3.97569e-015
rhumerus -27.018 -19.1091 -80.1968
rradius 20.631
rwrist 43.6415
rhand -15.5282 -25.6646
rfingers 7.12502
rthumb 10.6552 -55.3745
lclavicle -8.75895e-015 -3.97569e-015
lhumerus -23.6587 8.65248 86.3568
lradius 13.7882
lwrist -4.73132
lhand -24.6612 -7.303
lfingers 7.12502
lthumb 1.83882 22.6688
rfemur -9.7421 -2.25747 19.7264
rtibia 18.8539
rfoot -15.1321 2.45579
rtoes 15.9371
lfemur -8.25168 8.55253 -17.7592
ltibia 16.1846
lfoot -11.4571 6.82218
ltoes -8.3452
482
root 0.138325 17.6818 10.7129 7.06423 -1.77481 -1.56671
lowerback -6.30805 0.330161 0.515919
upperback -0.636471 0.356792 1.52289
thorax 2.87402 0.175677 1.31051
lowerneck -15.3265 0.141559 -1.86395
upperneck 15.8981 0.49416 0.720935
head 7.40441 0.190796 0.595182
rclavicle 2.23633e-016 7.95139e-016
rhumerus -26.9853 -18.9623 -80.2841
rradius 20.7088
rwrist 43.4529
rhand -15.5496 -25.6576
rfingers 7.12502
rthumb 10.6346 -55.3685
lclavicle 2.23633e-016 7.95139e-016
lhumerus -23.5644 8.59279 86.4398
lradius 13.8055
lwrist -4.69015
lhand -24.6597 -7.25721
lfingers 7.12502
lthumb 1.84026 22.7146
rfemur -9.77688 -2.23512 19.7104
rtibia 18.8829
rfoot -15.1281 2.4481
rtoes 15.866
lfemur -8.24543 8.54417 -17.7766
ltibia 16.1556
lfoot -11.4326 6.83951
ltoes -8.31334
483
root 0.139357 17.6821 10.7066 7.0555 -1.81255 -1.55398
lowerback -6.2777 0.332616 0.494021
upperback -0.633201 0.362018 1.52159
thorax 2.86018 0.178048 1.32167
lowerneck -15.356 0.159934 -1.86542
upperneck 15.7962 0.519222 0.72555
head 7.37576 0.203713 0.599283
rclavicle 6.02566e-015 8.34896e-015
rhumerus -26.9505 -18.8029 -80.3755
rradius 20.7931
rwrist 43.2505
rhand -15.5697 -25.6666
rfingers 7.12502
rthumb 10.6152 -55.3785
lclavicle 6.02566e-015 8.34896e-015
lhumerus -23.4682 8.51631 86.5351
lradius 13.8258
lwrist -4.64013
lhand -24.655 -7.18657
lfingers 7.12502
lthumb 1.84481 22.7852
rfemur -9.8122 -2.21616 19.6924
rtibia 18.9138
rfoot -15.1253 2.44837
rtoes 15.7994
lfemur -8.23708 8.5326 -17.7955
ltibia 16.1272
lfoot -11.4094 6.8623
ltoes -8.26665
484
root 0.140429 17.6824 10.7005 7.04625 -1.85374 -1.54382
lowerback -6.24773 0.33749 0.47554
upperback -0.629702 0.370177 1.52131
thorax 2.84674 0.181915 1.33223
lowerneck -15.385 0.177436 -1.86828
upperneck 15.7017 0.543209 0.731259
head 7.34951 0.216099 0.603877
rclavicle -1.06847e-014 -4.37326e-015
rhumerus -26.912 -18.6438 -80.4654
rradius 20.8739
rwrist 43.0487
rhand -15.5961 -25.6776
rfingers 7.12502
rthumb 10.5898 -55.3908
lclavicle -1.06847e-014 -4.37326e-015
lhumerus -23.3686 8.41156 86.6446
lradius 13.8473
lwrist -4.57451
lhand -24.6383 -7.08527
lfingers 7.12502
lthumb 1.8609 22.8864
rfemur -9.84739 -2.20073 19.6762
rtibia 18.9445
rfoot -15.1215 2.45888
rtoes 15.7498
lfemur -8.2278 8.52177 -17.812
ltibia 16.1005
lfoot -11.3879 6.88918
ltoes -8.22389
485
root 0.141566 17.6826 10.6944 7.03696 -1.89774 -1.53529
lowerback -6.21842 0.343562 0.45894
upperback -0.62678 0.37975 1.52231
thorax 2.83305 0.186506 1.34316
lowerneck -15.4125 0.194409 -1.87287
upperneck 15.616 0.566889 0.73676
head 7.32585 0.228171 0.608675
rclavicle -1.12562e-014 3.97569e-016
rhumerus -26.8693 -18.4868 -80.5528
rradius 20.9484
rwrist 42.8514
rhand -15.6222 -25.6907
rfingers 7.12502
rthumb 10.5646 -55.4052
lclavicle -1.12562e-014 3.97569e-016
lhumerus -23.2644 8.28049 86.7663
lradius 13.8649
lwrist -4.4946
lhand -24.6087 -6.95601
lfingers 7.12502
lthumb 1.88944 23.0154
rfemur -9.88279 -2.19024 19.6611
rtibia 18.975
rfoot -15.1177 2.4794
rtoes 15.7102
lfemur -8.21819 8.51116 -17.8272
ltibia 16.0752
lfoot -11.3667 6.91952
ltoes -8.18284
